<?xml version="1.0" standalone="no"?>
<!DOCTYPE svg PUBLIC "-//W3C//DTD SVG 20010904//EN"
 "http://www.w3.org/TR/2001/REC-SVG-20010904/DTD/svg10.dtd">
<svg version="1.0" xmlns="http://www.w3.org/2000/svg"
 width="512.000000pt" height="512.000000pt" viewBox="0 0 512.000000 512.000000"
 preserveAspectRatio="xMidYMid meet">

<g transform="translate(0.000000,512.000000) scale(0.100000,-0.100000)"
fill="#000000" stroke="none">
<path d="M2495 5109 c-16 -4 -569 -369 -1230 -809 -847 -565 -1207 -810 -1223
-834 -12 -18 -27 -48 -32 -67 -13 -46 -13 -1632 0 -1678 5 -19 20 -49 32 -67
16 -24 377 -270 1229 -838 1278 -852 1237 -827 1331 -811 56 10 2441 1597
2476 1649 12 18 27 48 32 67 13 46 13 1632 0 1678 -5 19 -20 49 -32 67 -27 40
-2402 1628 -2458 1644 -41 12 -84 12 -125 -1z m-155 -1132 l0 -514 -467 -313
c-257 -173 -474 -314 -483 -314 -16 -1 -770 493 -769 504 0 4 1707 1147 1717
1149 1 1 2 -230 2 -512z m2159 -637 c0 -5 -744 -502 -761 -509 -5 -2 -223 140
-484 315 l-474 318 0 513 0 513 860 -572 c473 -315 859 -575 859 -578z m-1554
-517 c212 -141 385 -259 385 -263 0 -4 -173 -122 -385 -263 l-385 -257 -385
257 c-212 141 -384 260 -383 265 2 6 754 514 766 517 1 1 175 -114 387 -256z
m-1970 -263 c0 -5 -120 -90 -267 -189 l-268 -180 0 369 0 369 268 -180 c147
-99 267 -184 267 -189z m3705 1 l0 -368 -267 178 c-148 99 -268 184 -268 189
0 7 497 351 533 369 1 0 2 -165 2 -368z m-2806 -591 l466 -313 0 -514 0 -513
-860 572 c-473 315 -859 575 -859 578 0 13 756 509 771 506 9 -2 226 -144 482
-316z m2250 65 c206 -137 375 -252 375 -255 0 -3 -386 -263 -859 -578 l-860
-572 0 513 0 513 473 317 c259 174 477 316 483 315 7 -2 181 -115 388 -253z"/>
</g>
</svg>
